# xmcd CD database file
#
# Track frame offsets:
#	150
#	19955
#	40020
#	60600
#	80127
#	101420
#	122630
#	148595
#	157302
#	178200
#
# Disc length: 2669 seconds
#
# Revision: 0
# Processed by: cddbd v1.5.1PL0 Copyright (c) Steve Scherf et al.
# Submitted via: CDex 1.51
#
DISCID=8b0a6b0a
DTITLE=中西俊博 - Silent Romance
DYEAR=1989
DGENRE=New Age
TTITLE0=Falling Star
TTITLE1=Virginia Cherill
TTITLE2=This Is My Song
TTITLE3=Venezia
TTITLE4=Mandolin Serenade
TTITLE5=Smile
TTITLE6=Angel
TTITLE7=I Love You, Kid
TTITLE8=Meeting With Georgia~Romance~Meeting With Georgia
TTITLE9=Limelight
EXTD=YEAR: 1989
EXTT0=
EXTT1=
EXTT2=
EXTT3=
EXTT4=
EXTT5=
EXTT6=
EXTT7=
EXTT8=
EXTT9=
PLAYORDER=
